<?xml version="1.0" encoding="UTF-8"?>
<svg id="Layer_2" data-name="Layer 2" xmlns="http://www.w3.org/2000/svg" xmlns:xlink="http://www.w3.org/1999/xlink" viewBox="0 0 458.89 596.33">
  <defs>
    <style>
      .cls-1 {
        fill: #ffffff;
        stroke: #ffffff;
      }

      .cls-1, .cls-2, .cls-3, .cls-4, .cls-5 {
        stroke-miterlimit: 10;
      }

      .cls-2 {
        fill: url(#linear-gradient-3);
        stroke: url(#linear-gradient-4);
      }

      .cls-3 {
        fill: url(#linear-gradient-7);
        stroke: url(#linear-gradient-8);
      }

      .cls-4 {
        fill: url(#linear-gradient);
        stroke: url(#linear-gradient-2);
      }

      .cls-5 {
        fill: url(#linear-gradient-5);
        stroke: url(#linear-gradient-6);
      }
    </style>
    <linearGradient id="linear-gradient" x1="137.92" y1="127.62" x2="137.92" y2="257.77" gradientUnits="userSpaceOnUse">
      <stop offset="0" stop-color="gold"/>
      <stop offset="1" stop-color="#8b7500"/>
    </linearGradient>
    <linearGradient id="linear-gradient-2" x1="138.02" y1="126.92" x2="138.02" y2="258.98" xlink:href="#linear-gradient"/>
    <linearGradient id="linear-gradient-3" x1="117.56" y1="212.29" x2="117.56" y2="374.88" xlink:href="#linear-gradient"/>
    <linearGradient id="linear-gradient-4" x1="117.66" y1="211.58" x2="117.66" y2="376.09" xlink:href="#linear-gradient"/>
    <linearGradient id="linear-gradient-5" x1="320.97" y1="127.67" x2="320.97" y2="257.82" xlink:href="#linear-gradient"/>
    <linearGradient id="linear-gradient-6" x1="320.87" y1="126.96" x2="320.87" y2="259.02" xlink:href="#linear-gradient"/>
    <linearGradient id="linear-gradient-7" x1="341.34" y1="212.33" x2="341.34" y2="374.93" xlink:href="#linear-gradient"/>
    <linearGradient id="linear-gradient-8" x1="341.23" y1="211.63" x2="341.23" y2="376.14" xlink:href="#linear-gradient"/>
  </defs>
  <g id="Layer_1-2" data-name="Layer 1">
    <path class="cls-1" d="M286.61,118.82c-12.63,15.22-33.49,25.18-57.12,25.18s-44.49-9.96-57.12-25.18l-13.59,13.59,70.71,70.71,70.71-70.71-13.59-13.59Z"/>
    <path class="cls-1" d="M276.37,91.77c-12.39,9.52-28.83,15.33-46.88,15.33s-34.49-5.8-46.88-15.33l-9.6,9.6c12.69,14.79,33.25,24.41,56.48,24.41s43.79-9.62,56.48-24.41l-9.6-9.6Z"/>
    <path class="cls-1" d="M209.52.87c-18.03,3.15-24.52,10.24-27.16,15.49-.01.03-.07.2-.2.41-.85,1.39-2.94,1.53-3.32,1.57-3.4.35-16.69,7.56-19.67,9.69-2.95,2.1-8.89,8.56-5.5,32,.31-1.1,2.48-8.36,9.61-11.52,6.64-2.94,14.87-1.12,20.45,4.67v14.9c-.02,3.04-.04,6.09-.06,9.13,4.1,2.96,7.74,5.01,10.36,6.34,0,0,17.47,8.33,33.71,8.22.25,0,.5-.01.75-.02.34,0,.67.02,1.01.02,17.7,0,33.83-5.6,46.13-14.8.01-12.71.02-25.42.03-38.12,10.22-12.78,20.45-25.56,30.67-38.34-32.27.12-64.54.24-96.81.37ZM265.01,23.92c-9.53-.73-15.13,1.67-18.5,4.04-2.64,1.85-2.78,2.89-7.78,6.9-5.17,4.15-7.92,6.35-12.11,7.56-5.93,1.71-11.06.37-12.7-.07-6.21-1.7-16.16-7.05-15.27-13.28.7-4.87,6.88-7.57,7.56-7.85,20.6-.29,41.2-.59,61.8-.88-1,1.2-2.01,2.4-3.01,3.6Z"/>
    <path class="cls-4" d="M131.66,127.62h-.01c-24.69,24.67-49.39,49.32-74.08,73.98v56.17l77.55-77.55,58.59,58.59,24.57-24.57-86.62-86.62Z"/>
    <polygon class="cls-2" points="57.5 374.88 177.62 254.76 135.14 212.29 57.5 289.94 57.5 374.88"/>
    <path class="cls-1" d="M115.51,111.57l-24.53-24.53C60.82,117.27,30.66,147.49.5,177.72v254.48l34.7-33.52v-206.79l80.31-80.31Z"/>
    <path class="cls-5" d="M327.24,127.67h.01c24.69,24.67,49.39,49.32,74.08,73.98v56.17s-77.55-77.55-77.55-77.55l-58.59,58.59-24.57-24.57,86.62-86.62Z"/>
    <polygon class="cls-3" points="401.4 374.93 281.28 254.81 323.75 212.33 401.4 289.98 401.4 374.93"/>
    <path class="cls-1" d="M343.38,111.62l24.53-24.53c30.16,30.23,60.32,60.45,90.48,90.68v254.48s-34.7-33.52-34.7-33.52v-206.79s-80.31-80.31-80.31-80.31Z"/>
    <g>
      <polygon class="cls-1" points="265.09 261.22 265.09 560.03 306.92 518.2 306.71 516.43 306.71 516.43 278.47 274.61 278.44 274.64 265.13 261.34 265.17 261.3 265.09 261.22"/>
      <polygon class="cls-1" points="141.78 313.34 86.59 452.73 132 498.13 155.13 299.98 141.78 313.34"/>
      <polygon class="cls-1" points="317.16 313.31 317.14 313.34 303.83 300.03 303.86 300 303.82 299.96 326.96 498.15 372.37 452.75 317.16 313.31"/>
      <polygon class="cls-1" points="242.85 238.98 242.82 238.96 242.79 239 229.48 225.69 229.52 225.65 229.49 225.63 216.11 239.01 216.11 582.24 229.49 595.62 242.85 582.27 242.85 238.98"/>
      <polygon class="cls-1" points="193.87 261.25 180.48 274.64 152.25 516.43 152.24 516.43 152.04 518.17 193.87 560 193.87 261.25"/>
    </g>
  </g>
</svg>